<?xml version="1.0" encoding="UTF-8"?>
<svg id="Layer_1" data-name="Layer 1" xmlns="http://www.w3.org/2000/svg" viewBox="0 0 72 72">
  <defs>
    <style>
      .cls-1 {
        fill: #008061;
        fill-rule: evenodd;
        stroke-width: 0px;
      }
    </style>
  </defs>
  <path class="cls-1" d="m45.76,22.75c1.74,0,3.02.72,3.84,2.2.38.69.59,1.44.59,2.26,0,.75-.19,1.46-.54,2.11-.86,1.54-2.15,2.31-3.89,2.31s-2.98-.7-3.82-2.11c-.44-.72-.64-1.49-.64-2.31s.18-1.58.59-2.26c.84-1.48,2.15-2.2,3.87-2.2h0Zm-19.55,0c1.78,0,3.07.72,3.89,2.2.39.69.59,1.44.59,2.26s-.2,1.53-.59,2.21c-.82,1.47-2.11,2.21-3.89,2.21s-3.02-.74-3.82-2.21c-.4-.69-.6-1.43-.6-2.21,0-.86.2-1.63.6-2.31.87-1.44,2.15-2.15,3.82-2.15h0Zm9.77-18.22c-8.67,0-16.09,3.08-22.24,9.25-6.15,6.17-9.24,13.58-9.24,22.23s3.08,16.08,9.24,22.21c6.15,6.13,13.58,9.22,22.24,9.22s16.06-3.09,22.23-9.22c6.17-6.14,9.25-13.55,9.25-22.21s-3.08-16.06-9.25-22.23c-6.17-6.17-13.58-9.25-22.23-9.25h0Zm0-4.53c9.92,0,18.41,3.52,25.45,10.56,7.04,7.04,10.56,15.52,10.56,25.45s-3.52,18.39-10.56,25.43c-7.04,7.04-15.52,10.56-25.45,10.56s-18.41-3.52-25.43-10.56C3.52,54.4,0,45.92,0,36.01S3.52,17.6,10.56,10.56C17.58,3.52,26.07,0,35.99,0h0Zm20.33,33.11h5.01c0,7.07-2.5,13.09-7.49,18.09-5,5-11.01,7.49-18.05,7.49s-13.04-2.5-18.04-7.49c-5-5-7.49-11.01-7.49-18.09h5.01c0,5.7,1.99,10.53,6.02,14.5,4.01,3.99,8.83,5.97,14.5,5.97s10.51-1.98,14.52-5.97c4.01-3.97,6.02-8.8,6.02-14.5h0Z"/>
</svg>