<svg width="44" height="44" viewBox="0 0 44 44" fill="none" xmlns="http://www.w3.org/2000/svg">
<circle cx="22" cy="22" r="22" fill="#FFFEF5"/>
<path d="M22 26.747C24.6217 26.747 26.747 24.6217 26.747 22C26.747 19.3782 24.6217 17.2529 22 17.2529C19.3783 17.2529 17.253 19.3782 17.253 22C17.253 24.6217 19.3783 26.747 22 26.747Z" stroke="#3D3030" stroke-width="2" stroke-linecap="round" stroke-linejoin="round"/>
<path d="M27.6964 10.6069H16.3036C13.1575 10.6069 10.6071 13.1573 10.6071 16.3034V27.6962C10.6071 30.8423 13.1575 33.3926 16.3036 33.3926H27.6964C30.8425 33.3926 33.3929 30.8423 33.3929 27.6962V16.3034C33.3929 13.1573 30.8425 10.6069 27.6964 10.6069Z" stroke="#3D3030" stroke-width="2" stroke-linecap="round" stroke-linejoin="round"/>
<path d="M28.1711 17.0156C28.8266 17.0156 29.3579 16.4843 29.3579 15.8288C29.3579 15.1734 28.8266 14.6421 28.1711 14.6421C27.5157 14.6421 26.9844 15.1734 26.9844 15.8288C26.9844 16.4843 27.5157 17.0156 28.1711 17.0156Z" fill="black"/>
</svg>
