<?xml version="1.0" encoding="UTF-8"?>
<svg id="Layer_1" data-name="Layer 1" xmlns="http://www.w3.org/2000/svg" viewBox="0 0 307.1 42.6">
  <defs>
    <style>
      .cls-1 {
        fill: #db6439;
        stroke-width: 0px;
      }
    </style>
  </defs>
  <path class="cls-1" d="m18.48,1.61c.41,0,.69.28.55.69v21.21c0,6.62-4.09,10.54-11,10.54-2.94,0-6.03-.92-7.68-2.3-.28-.23-.41-.51-.32-.83l2.25-6.3c.14-.41.55-.41.87-.18.87.69,2.02,1.15,3.45,1.15,1.75,0,2.9-1.2,3.08-3.04V2.3c0-.41.28-.69.69-.69h8.1Z"/>
  <path class="cls-1" d="m44.97,8.05c.37,0,.69.32.69.69v23.97c0,.32-.32.64-.69.64h-5.2c-.37,0-.6-.32-.74-.69l-.69-1.66c-1.66,1.84-4.37,3.04-7.36,3.04-5.98,0-9.52-3.82-9.52-10.08v-15.23c0-.37.32-.69.69-.69h8.1c.37,0,.69.32.69.69v14.08c0,1.56.97,2.62,2.44,2.62,1.79,0,2.81-1.47,2.81-1.47v-15.23c0-.37.32-.69.69-.69h8.1Z"/>
  <path class="cls-1" d="m56.1,9.98c1.47-1.61,4.14-2.58,7.22-2.58,3.31,0,5.84,1.33,6.85,3.63,1.79-2.3,4.74-3.63,7.96-3.63,6.16,0,9.8,3.77,9.8,10.12v15.18c0,.41-.23.64-.64.64h-8.19c-.41,0-.64-.23-.64-.64v-13.8c-.09-1.84-.87-2.9-2.25-2.9-2.62,0-3.04,2.58-2.99,2.58v14.12c0,.41-.23.64-.64.64h-8.19c-.41,0-.64-.23-.64-.64v-13.8c0-1.98-.87-2.9-2.25-2.9-2.62,0-3.04,2.58-3.04,2.58v14.12c0,.41-.23.64-.64.64h-8.19c-.41,0-.64-.23-.64-.64V8.7c0-.41.23-.64.64-.64h5.15c.32,0,.6.14.74.46l.6,1.47Z"/>
  <path class="cls-1" d="m100.45,9.16c1.38-1.1,3.45-1.75,5.61-1.75,7.27,0,12.15,5.34,12.15,13.3s-4.88,13.34-12.15,13.34c-3.08,0-6.03-1.2-7.77-3.04l-.69,1.66c-.18.41-.41.69-.74.69h-5.2c-.37,0-.69-.32-.69-.69V.64c0-.32.32-.64.69-.64h8.1c.37,0,.69.32.69.64v8.51Zm0,14.49c.55,1.52,2.02,2.53,3.63,2.53,2.53,0,4.23-2.21,4.23-5.52s-1.7-5.34-4.23-5.34c-1.61,0-3.08,1.01-3.63,2.53v5.8Z"/>
  <path class="cls-1" d="m147.09,20.7c0,8-5.43,13.34-13.53,13.34s-13.53-5.34-13.53-13.3,5.43-13.34,13.53-13.34,13.53,5.34,13.53,13.3Zm-18.08.05c0,2.99,1.84,5.01,4.55,5.01s4.55-2.02,4.55-5.06-1.84-5.01-4.55-5.01-4.55,2.02-4.55,5.06Z"/>
  <path class="cls-1" d="m170.14,1.61c6.03,0,10.03,3.59,10.03,8.97,0,3.31-1.61,5.75-4.09,6.49,2.9.74,4.78,3.5,4.78,7.31,0,5.38-4,8.97-9.98,8.97h-14.58c-.37,0-.64-.32-.64-.64V2.3c0-.32.28-.69.64-.69h13.85Zm-2.12,12.47c1.38,0,2.3-.83,2.3-2.12s-.92-2.12-2.3-2.12h-2.9v4.23h2.9Zm.83,11.04c1.33,0,2.25-.87,2.25-2.21s-.92-2.21-2.25-2.21h-3.73v4.42h3.73Z"/>
  <path class="cls-1" d="m185.09,10.9c-.14-.32-.05-.64.23-.87,2.62-1.66,6.3-2.62,9.98-2.62,7.96,0,11.64,4.19,11.64,13.34v11.92c0,.37-.32.69-.69.69h-5.8c-.37,0-.74-.32-.74-.69l-.32-1.24c-1.52,1.61-4.55,2.62-7.91,2.62-5.29,0-8.79-3.4-8.74-8.46.05-4.51,3.54-7.5,8.74-7.5,2.67,0,5.06.97,5.98,2.44v-1.93c0-1.98-1.43-3.27-3.54-3.27-1.79,0-4,.6-5.52,1.47-.23.14-.51-.05-.69-.37l-2.62-5.52Zm12.38,14.17c-.78-.78-1.56-1.15-2.53-1.15-1.15,0-1.93.64-1.93,1.66s.78,1.66,1.93,1.66c.97,0,1.75-.37,2.53-1.15v-1.01Z"/>
  <path class="cls-1" d="m219.03,0c.37,0,.69.32.69.64v15.27l4.28-7.31c.18-.32.64-.55,1.06-.55h9.2c.37,0,.51.23.32.55l-6.81,11.27,8.33,12.93c.23.32.05.55-.32.55h-9.8c-.32,0-.78-.23-.97-.55l-5.29-9.11v8.97c0,.37-.32.69-.69.69h-8.1c-.37,0-.69-.32-.69-.69V.64c0-.32.32-.64.69-.64h8.1Z"/>
  <path class="cls-1" d="m258.23,30.78c.09.32,0,.51-.32.69-2.44,1.61-5.98,2.58-9.52,2.58-8.14,0-13.57-5.34-13.57-13.3s5.34-13.34,13.34-13.34,12.15,4.92,12.15,13.3c0,.69-.05,1.38-.18,2.07-.05.37-.28.55-.69.55h-14.77s0,2.9,3.86,2.9c2.35,0,4.97-.55,7.04-1.52.32-.14.6.05.69.37l1.98,5.7Zm-7.08-12.28c0-2.02-1.24-3.36-3.08-3.36-2.07,0-3.45,1.33-3.45,3.36h6.53Z"/>
  <path class="cls-1" d="m277.45,8.05c.37,0,.64.28.64.64v5.98c0,.37-.28.64-.64.64h-1.2c-1.75,0-3.31.78-3.91,1.93v15.41c0,.37-.32.69-.69.69h-8.1c-.37,0-.69-.32-.69-.69V8.74c0-.32.32-.64.69-.64h5.2c.37,0,.6.32.74.69l.69,2.02c1.38-1.7,3.63-2.76,6.07-2.76h1.2Z"/>
  <path class="cls-1" d="m306.57,8.05c.41,0,.6.32.51.64l-7.87,24.66c-2.21,6.9-6.03,9.25-11.92,9.25-3.17,0-6.3-1.01-7.82-2.48-.23-.23-.28-.55-.23-.78l2.58-5.2c.14-.32.37-.41.55-.28,1.52,1.06,3.17,1.66,4.51,1.66,2.35,0,3.54-1.06,4.19-3.73h-3.77c-.46,0-.74-.32-.83-.64l-7.41-22.45c-.14-.32.09-.64.46-.64h9.25c.41,0,.74.28.87.64l3.54,14.45,3.5-14.45c.09-.41.51-.64.83-.64h9.06Z"/>
</svg>