<?xml version="1.0" encoding="UTF-8"?>
<svg id="Lag_1" data-name="Lag 1" xmlns="http://www.w3.org/2000/svg" viewBox="0 0 239.53 315.81">
  <defs>
    <style>
      .cls-1 {
        fill: none;
      }

      .cls-1, .cls-2 {
        stroke-width: 0px;
      }

      .cls-2 {
        fill: #fffef6;
      }
    </style>
  </defs>
  <g>
    <path class="cls-2" d="m65.95,271.98c-14.81,0-26.85-12.04-26.85-26.85s12.04-26.85,26.85-26.85,26.85,12.04,26.85,26.85-12.04,26.85-26.85,26.85Zm0-45.7c-10.39,0-18.85,8.46-18.85,18.85s8.46,18.85,18.85,18.85,18.85-8.46,18.85-18.85-8.46-18.85-18.85-18.85Z"/>
    <path class="cls-2" d="m48.57,234.33c-1.04,0-2.09-.41-2.87-1.22L1.92,187.97c-1.54-1.59-1.5-4.12.09-5.66,1.59-1.54,4.12-1.5,5.66.09l43.77,45.14c1.54,1.59,1.5,4.12-.09,5.66-.78.75-1.78,1.13-2.78,1.13Z"/>
    <path class="cls-2" d="m64.45,315.52h-.04c-2.21-.02-3.98-1.83-3.96-4.04l.44-41.48c.02-2.21,1.88-3.97,4.04-3.96,2.21.02,3.98,1.83,3.96,4.04l-.44,41.48c-.02,2.19-1.81,3.96-4,3.96Z"/>
    <path class="cls-2" d="m88.8,249.13c-2.21,0-4-1.79-4-3.99,0-2.21,1.78-4,3.99-4.01l145.98-.24h0c2.21,0,4,1.79,4,3.99,0,2.21-1.78,4-3.99,4.01l-145.98.24h0Z"/>
    <path class="cls-2" d="m180.95,247.12h-.03c-2.21-.02-3.99-1.82-3.97-4.03l.88-128.72c.02-2.21,1.78-3.98,4.03-3.97,2.21.02,3.99,1.82,3.97,4.03l-.88,128.72c-.02,2.2-1.8,3.97-4,3.97Z"/>
    <path class="cls-2" d="m76.62,157.1H6.21c-2.21,0-4-1.79-4-4s1.79-4,4-4h70.41c2.21,0,4,1.79,4,4s-1.79,4-4,4Z"/>
  </g>
  <path class="cls-2" d="m189.3,315.81H50.22c-27.69,0-50.22-22.53-50.22-50.22V120.28c0-27.69,22.53-50.22,50.22-50.22h42.16v8h-42.16c-23.28,0-42.22,18.94-42.22,42.22v145.31c0,23.28,18.94,42.22,42.22,42.22h139.08c23.28,0,42.22-18.94,42.22-42.22V120.28c0-23.28-18.94-42.22-42.22-42.22h-38.83v-8h38.83c27.69,0,50.22,22.53,50.22,50.22v145.31c0,27.69-22.53,50.22-50.22,50.22Z"/>
  <path class="cls-2" d="m174.67,22.11c-29.93-30.35-79.74-29.28-108.5,2.17-57.18,62.52,27.51,169.48,49.55,195.22,2.62,3.06,7.37,3.04,9.96-.06,22.13-26.37,108.33-137.14,48.99-197.33Zm-53.94,76.99c-14.6,0-26.44-11.84-26.44-26.44s11.84-26.44,26.44-26.44,26.44,11.83,26.44,26.44-11.84,26.44-26.44,26.44Z"/>
  <circle class="cls-1" cx="120.73" cy="72.66" r="26.44"/>
</svg>