<svg width="45" height="45" viewBox="0 0 45 45" fill="none" xmlns="http://www.w3.org/2000/svg">
<g clip-path="url(#clip0_59_165)">
<path d="M22.5 0C10.0723 0 0 10.0723 0 22.5C0 34.9277 10.0723 45 22.5 45C34.9277 45 45 34.9277 45 22.5C45 10.0723 34.9277 0 22.5 0ZM30.9375 24.6094H24.6094V30.9375C24.6094 32.0977 23.6602 33.0469 22.5791 33.0469C21.3398 33.0469 20.3906 32.0977 20.3906 30.9375V24.6094H14.0625C12.9023 24.6094 11.9531 23.6602 11.9531 22.5C11.9531 21.3398 12.9023 20.3906 14.0625 20.3906H20.3906V14.0625C20.3906 12.9023 21.3398 11.9531 22.5 11.9531C23.6602 11.9531 24.6094 12.9023 24.6094 14.0625V20.3906H30.9375C32.0977 20.3906 33.0469 21.3398 33.0469 22.5C33.0469 23.6602 32.0977 24.6094 30.9375 24.6094Z" fill="#3C2F2F"/>
</g>
<defs>
<clipPath id="clip0_59_165">
<rect width="45" height="45" fill="white"/>
</clipPath>
</defs>
</svg>
