<svg width="1512" height="192" viewBox="0 0 1512 192" fill="none" xmlns="http://www.w3.org/2000/svg">
<path d="M0 60.0001L51.4333 42.4275C102.867 24.525 205.733 -10.125 308.6 2.82755C411.467 16.275 514.333 77.325 617.2 108.428C720.067 139.2 822.933 139.2 925.8 121.628C1028.67 103.725 1131.53 69.0751 1234.4 68.8276C1337.27 69.0751 1440.13 103.725 1491.57 121.628L1543 139.2V192H1491.57C1440.13 192 1337.27 192 1234.4 192C1131.53 192 1028.67 192 925.8 192C822.933 192 720.067 192 617.2 192C514.333 192 411.467 192 308.6 192C205.733 192 102.867 192 51.4333 192H0V60.0001Z" fill="#FFA463"/>
</svg>
